<svg xmlns="http://www.w3.org/2000/svg" viewBox="0 0 32 32">
  <defs>
    <linearGradient id="g" x1="0%" y1="0%" x2="100%" y2="100%">
      <stop offset="0%" stop-color="#6366f1"/>
      <stop offset="100%" stop-color="#22d3ee"/>
    </linearGradient>
    <filter id="glow" x="-30%" y="-30%" width="160%" height="160%">
      <feGaussianBlur stdDeviation="1.5" result="b"/>
      <feMerge><feMergeNode in="b"/><feMergeNode in="SourceGraphic"/></feMerge>
    </filter>
  </defs>
  <rect x="0.5" y="0.5" width="31" height="31" rx="8" fill="url(#g)"/>
  <rect x="1" y="1" width="30" height="30" rx="7.5" fill="none" stroke="rgba(255,255,255,0.25)" stroke-width="1"/>
  <g transform="translate(6.5, 7.5) scale(0.96)" stroke="white" stroke-width="1.7" stroke-linecap="round" stroke-linejoin="round" fill="none">
    <line x1="3.5" y1="9.5" x2="7.5" y2="9.5"/>
    <line x1="5.5" y1="7.5" x2="5.5" y2="11.5"/>
    <line x1="13" y1="11" x2="13.01" y2="11" stroke-width="2.5"/>
    <line x1="15.5" y1="9" x2="15.51" y2="9" stroke-width="2.5"/>
    <path d="M14.8 2.5H5.2A3.5 3.5 0 0 0 1.7 5.6C1.65 6 1.1 10.5 1.1 12A2.4 2.4 0 0 0 3.5 14.4c.75 0 1.1-.38 1.5-.75L6.2 12.5a1.5 1.5 0 0 1 1.06-.44h5.48a1.5 1.5 0 0 1 1.06.44l1.2 1.15c.4.37.75.75 1.5.75A2.4 2.4 0 0 0 18.9 12c0-1.5-.55-6-.6-6.4A3.5 3.5 0 0 0 14.8 2.5z"/>
  </g>
</svg>
